<mxfile host="Electron" modified="2023-05-12T06:34:57.585Z" agent="Mozilla/5.0 (Windows NT 10.0; Win64; x64) AppleWebKit/537.36 (KHTML, like Gecko) draw.io/21.2.1 Chrome/112.0.5615.87 Electron/24.1.2 Safari/537.36" etag="lDHO4WvEA2BBP27i5gwP" version="21.2.1" type="device">
  <diagram name="Page-1" id="03018318-947c-dd8e-b7a3-06fadd420f32">
    <mxGraphModel dx="2766" dy="989" grid="1" gridSize="10" guides="1" tooltips="1" connect="1" arrows="1" fold="1" page="1" pageScale="1" pageWidth="1100" pageHeight="850" background="#ffffff" math="0" shadow="0">
      <root>
        <mxCell id="0" />
        <mxCell id="1" parent="0" />
        <mxCell id="80iF3O7qkHXSTFUTzdZd-7" value="Revisions" style="shape=table;startSize=30;container=1;collapsible=0;childLayout=tableLayout;fixedRows=1;rowLines=0;fontStyle=0;strokeColor=default;fontSize=16;" vertex="1" parent="1">
          <mxGeometry x="-1070" y="20" width="370" height="120" as="geometry" />
        </mxCell>
        <mxCell id="80iF3O7qkHXSTFUTzdZd-8" value="" style="shape=tableRow;horizontal=0;startSize=0;swimlaneHead=0;swimlaneBody=0;top=0;left=0;bottom=0;right=0;collapsible=0;dropTarget=0;fillColor=none;points=[[0,0.5],[1,0.5]];portConstraint=eastwest;strokeColor=inherit;fontSize=16;" vertex="1" parent="80iF3O7qkHXSTFUTzdZd-7">
          <mxGeometry y="30" width="370" height="30" as="geometry" />
        </mxCell>
        <mxCell id="80iF3O7qkHXSTFUTzdZd-9" value="1" style="shape=partialRectangle;html=1;whiteSpace=wrap;connectable=0;fillColor=none;top=0;left=0;bottom=0;right=0;overflow=hidden;pointerEvents=1;strokeColor=inherit;fontSize=16;" vertex="1" parent="80iF3O7qkHXSTFUTzdZd-8">
          <mxGeometry width="19" height="30" as="geometry">
            <mxRectangle width="19" height="30" as="alternateBounds" />
          </mxGeometry>
        </mxCell>
        <mxCell id="80iF3O7qkHXSTFUTzdZd-10" value="23.04.28.&amp;nbsp;" style="shape=partialRectangle;html=1;whiteSpace=wrap;connectable=0;fillColor=none;top=0;left=0;bottom=0;right=0;align=left;spacingLeft=6;overflow=hidden;strokeColor=inherit;fontSize=16;" vertex="1" parent="80iF3O7qkHXSTFUTzdZd-8">
          <mxGeometry x="19" width="81" height="30" as="geometry">
            <mxRectangle width="81" height="30" as="alternateBounds" />
          </mxGeometry>
        </mxCell>
        <mxCell id="80iF3O7qkHXSTFUTzdZd-17" value="&lt;span style=&quot;color: rgb(0, 0, 0); font-family: Helvetica; font-size: 16px; font-style: normal; font-variant-ligatures: normal; font-variant-caps: normal; font-weight: 400; letter-spacing: normal; orphans: 2; text-align: left; text-indent: 0px; text-transform: none; widows: 2; word-spacing: 0px; -webkit-text-stroke-width: 0px; background-color: rgb(251, 251, 251); text-decoration-thickness: initial; text-decoration-style: initial; text-decoration-color: initial; float: none; display: inline !important;&quot;&gt;초안 작성&lt;/span&gt;" style="shape=partialRectangle;html=1;whiteSpace=wrap;connectable=0;fillColor=none;top=0;left=0;bottom=0;right=0;align=left;spacingLeft=6;overflow=hidden;strokeColor=inherit;fontSize=16;" vertex="1" parent="80iF3O7qkHXSTFUTzdZd-8">
          <mxGeometry x="100" width="270" height="30" as="geometry">
            <mxRectangle width="270" height="30" as="alternateBounds" />
          </mxGeometry>
        </mxCell>
        <mxCell id="80iF3O7qkHXSTFUTzdZd-11" value="" style="shape=tableRow;horizontal=0;startSize=0;swimlaneHead=0;swimlaneBody=0;top=0;left=0;bottom=0;right=0;collapsible=0;dropTarget=0;fillColor=none;points=[[0,0.5],[1,0.5]];portConstraint=eastwest;strokeColor=inherit;fontSize=16;" vertex="1" parent="80iF3O7qkHXSTFUTzdZd-7">
          <mxGeometry y="60" width="370" height="30" as="geometry" />
        </mxCell>
        <mxCell id="80iF3O7qkHXSTFUTzdZd-12" value="2" style="shape=partialRectangle;html=1;whiteSpace=wrap;connectable=0;fillColor=none;top=0;left=0;bottom=0;right=0;overflow=hidden;strokeColor=inherit;fontSize=16;" vertex="1" parent="80iF3O7qkHXSTFUTzdZd-11">
          <mxGeometry width="19" height="30" as="geometry">
            <mxRectangle width="19" height="30" as="alternateBounds" />
          </mxGeometry>
        </mxCell>
        <mxCell id="80iF3O7qkHXSTFUTzdZd-13" value="23.05.04." style="shape=partialRectangle;html=1;whiteSpace=wrap;connectable=0;fillColor=none;top=0;left=0;bottom=0;right=0;align=left;spacingLeft=6;overflow=hidden;strokeColor=inherit;fontSize=16;" vertex="1" parent="80iF3O7qkHXSTFUTzdZd-11">
          <mxGeometry x="19" width="81" height="30" as="geometry">
            <mxRectangle width="81" height="30" as="alternateBounds" />
          </mxGeometry>
        </mxCell>
        <mxCell id="80iF3O7qkHXSTFUTzdZd-18" value="&lt;span style=&quot;color: rgb(0, 0, 0); font-family: Helvetica; font-size: 16px; font-style: normal; font-variant-ligatures: normal; font-variant-caps: normal; font-weight: 400; letter-spacing: normal; orphans: 2; text-align: left; text-indent: 0px; text-transform: none; widows: 2; word-spacing: 0px; -webkit-text-stroke-width: 0px; background-color: rgb(251, 251, 251); text-decoration-thickness: initial; text-decoration-style: initial; text-decoration-color: initial; float: none; display: inline !important;&quot;&gt;데이터 가시성을 위해 가로로 변경.&lt;/span&gt;" style="shape=partialRectangle;html=1;whiteSpace=wrap;connectable=0;fillColor=none;top=0;left=0;bottom=0;right=0;align=left;spacingLeft=6;overflow=hidden;strokeColor=inherit;fontSize=16;" vertex="1" parent="80iF3O7qkHXSTFUTzdZd-11">
          <mxGeometry x="100" width="270" height="30" as="geometry">
            <mxRectangle width="270" height="30" as="alternateBounds" />
          </mxGeometry>
        </mxCell>
        <mxCell id="80iF3O7qkHXSTFUTzdZd-14" value="" style="shape=tableRow;horizontal=0;startSize=0;swimlaneHead=0;swimlaneBody=0;top=0;left=0;bottom=0;right=0;collapsible=0;dropTarget=0;fillColor=none;points=[[0,0.5],[1,0.5]];portConstraint=eastwest;strokeColor=inherit;fontSize=16;" vertex="1" parent="80iF3O7qkHXSTFUTzdZd-7">
          <mxGeometry y="90" width="370" height="30" as="geometry" />
        </mxCell>
        <mxCell id="80iF3O7qkHXSTFUTzdZd-15" value="3" style="shape=partialRectangle;html=1;whiteSpace=wrap;connectable=0;fillColor=none;top=0;left=0;bottom=0;right=0;overflow=hidden;strokeColor=inherit;fontSize=16;" vertex="1" parent="80iF3O7qkHXSTFUTzdZd-14">
          <mxGeometry width="19" height="30" as="geometry">
            <mxRectangle width="19" height="30" as="alternateBounds" />
          </mxGeometry>
        </mxCell>
        <mxCell id="80iF3O7qkHXSTFUTzdZd-16" value="23.05.12" style="shape=partialRectangle;html=1;whiteSpace=wrap;connectable=0;fillColor=none;top=0;left=0;bottom=0;right=0;align=left;spacingLeft=6;overflow=hidden;strokeColor=inherit;fontSize=16;" vertex="1" parent="80iF3O7qkHXSTFUTzdZd-14">
          <mxGeometry x="19" width="81" height="30" as="geometry">
            <mxRectangle width="81" height="30" as="alternateBounds" />
          </mxGeometry>
        </mxCell>
        <mxCell id="80iF3O7qkHXSTFUTzdZd-19" value="About창 UI 추가" style="shape=partialRectangle;html=1;whiteSpace=wrap;connectable=0;fillColor=none;top=0;left=0;bottom=0;right=0;align=left;spacingLeft=6;overflow=hidden;strokeColor=inherit;fontSize=16;" vertex="1" parent="80iF3O7qkHXSTFUTzdZd-14">
          <mxGeometry x="100" width="270" height="30" as="geometry">
            <mxRectangle width="270" height="30" as="alternateBounds" />
          </mxGeometry>
        </mxCell>
        <mxCell id="80iF3O7qkHXSTFUTzdZd-22" value="MainGUI - Discared by Rev2" style="swimlane;whiteSpace=wrap;html=1;" vertex="1" parent="1">
          <mxGeometry x="-1080" y="1750" width="970" height="1070" as="geometry" />
        </mxCell>
        <mxCell id="nP_nll61NOsiGRVxidjP-2" value="" style="rounded=0;whiteSpace=wrap;html=1;" parent="80iF3O7qkHXSTFUTzdZd-22" vertex="1">
          <mxGeometry x="10" y="30" width="960" height="540" as="geometry" />
        </mxCell>
        <mxCell id="nP_nll61NOsiGRVxidjP-3" value="&amp;nbsp;[TITLE] boDicom" style="rounded=0;whiteSpace=wrap;html=1;align=left;fillColor=#eeeeee;strokeColor=#36393d;" parent="80iF3O7qkHXSTFUTzdZd-22" vertex="1">
          <mxGeometry x="10" y="30" width="960" height="20" as="geometry" />
        </mxCell>
        <mxCell id="nP_nll61NOsiGRVxidjP-4" value="&amp;nbsp;[MENU] File / Help ..." style="rounded=0;whiteSpace=wrap;html=1;align=left;" parent="80iF3O7qkHXSTFUTzdZd-22" vertex="1">
          <mxGeometry x="10" y="50" width="960" height="20" as="geometry" />
        </mxCell>
        <mxCell id="nP_nll61NOsiGRVxidjP-5" value="" style="rounded=0;whiteSpace=wrap;html=1;" parent="80iF3O7qkHXSTFUTzdZd-22" vertex="1">
          <mxGeometry x="10" y="70" width="240" height="500" as="geometry" />
        </mxCell>
        <mxCell id="nP_nll61NOsiGRVxidjP-6" value="" style="rounded=0;whiteSpace=wrap;html=1;" parent="80iF3O7qkHXSTFUTzdZd-22" vertex="1">
          <mxGeometry x="250" y="70" width="400" height="500" as="geometry" />
        </mxCell>
        <mxCell id="nP_nll61NOsiGRVxidjP-7" value="" style="rounded=0;whiteSpace=wrap;html=1;" parent="80iF3O7qkHXSTFUTzdZd-22" vertex="1">
          <mxGeometry x="650" y="70" width="320" height="500" as="geometry" />
        </mxCell>
        <mxCell id="nP_nll61NOsiGRVxidjP-15" value="←→  " style="shape=link;html=1;rounded=0;exitX=0;exitY=0;exitDx=0;exitDy=0;entryX=1;entryY=1;entryDx=0;entryDy=0;" parent="80iF3O7qkHXSTFUTzdZd-22" source="nP_nll61NOsiGRVxidjP-6" target="nP_nll61NOsiGRVxidjP-5" edge="1">
          <mxGeometry width="100" relative="1" as="geometry">
            <mxPoint x="440" y="330" as="sourcePoint" />
            <mxPoint x="540" y="330" as="targetPoint" />
          </mxGeometry>
        </mxCell>
        <mxCell id="nP_nll61NOsiGRVxidjP-16" value="" style="shape=link;html=1;rounded=0;exitX=0;exitY=0;exitDx=0;exitDy=0;entryX=1;entryY=1;entryDx=0;entryDy=0;" parent="80iF3O7qkHXSTFUTzdZd-22" edge="1">
          <mxGeometry width="100" relative="1" as="geometry">
            <mxPoint x="649" y="70" as="sourcePoint" />
            <mxPoint x="649" y="570" as="targetPoint" />
          </mxGeometry>
        </mxCell>
        <mxCell id="nP_nll61NOsiGRVxidjP-17" value="←→  " style="edgeLabel;html=1;align=center;verticalAlign=middle;resizable=0;points=[];" parent="nP_nll61NOsiGRVxidjP-16" vertex="1" connectable="0">
          <mxGeometry x="0.108" y="4" relative="1" as="geometry">
            <mxPoint x="-3" y="-27" as="offset" />
          </mxGeometry>
        </mxCell>
        <mxCell id="nP_nll61NOsiGRVxidjP-18" value="Image Section" style="rounded=0;whiteSpace=wrap;html=1;fillColor=#eeeeee;strokeColor=#36393d;" parent="80iF3O7qkHXSTFUTzdZd-22" vertex="1">
          <mxGeometry x="260" y="80" width="380" height="480" as="geometry" />
        </mxCell>
        <mxCell id="nP_nll61NOsiGRVxidjP-19" value="FileList Section" style="rounded=0;whiteSpace=wrap;html=1;fillColor=#eeeeee;strokeColor=#36393d;" parent="80iF3O7qkHXSTFUTzdZd-22" vertex="1">
          <mxGeometry x="20" y="80" width="220" height="480" as="geometry" />
        </mxCell>
        <mxCell id="nP_nll61NOsiGRVxidjP-20" value="TagList Section" style="rounded=0;whiteSpace=wrap;html=1;fillColor=#eeeeee;strokeColor=#36393d;" parent="80iF3O7qkHXSTFUTzdZd-22" vertex="1">
          <mxGeometry x="660" y="80" width="300" height="480" as="geometry" />
        </mxCell>
        <mxCell id="nP_nll61NOsiGRVxidjP-21" value="" style="rounded=0;whiteSpace=wrap;html=1;" parent="80iF3O7qkHXSTFUTzdZd-22" vertex="1">
          <mxGeometry x="260" y="580" width="380" height="480" as="geometry" />
        </mxCell>
        <mxCell id="nP_nll61NOsiGRVxidjP-22" value="" style="rounded=0;whiteSpace=wrap;html=1;" parent="80iF3O7qkHXSTFUTzdZd-22" vertex="1">
          <mxGeometry x="20" y="580" width="220" height="480" as="geometry" />
        </mxCell>
        <mxCell id="nP_nll61NOsiGRVxidjP-40" value="&lt;h5&gt;&lt;ul&gt;&lt;li&gt;Dicom File 1&lt;/li&gt;&lt;/ul&gt;&lt;ul&gt;&lt;li style=&quot;border-color: var(--border-color);&quot;&gt;Dicom File 2&lt;/li&gt;&lt;/ul&gt;&lt;ul&gt;&lt;li style=&quot;border-color: var(--border-color);&quot;&gt;Dicom File 3&lt;/li&gt;&lt;/ul&gt;&lt;ul&gt;&lt;li style=&quot;border-color: var(--border-color);&quot;&gt;Dicom File 4&lt;/li&gt;&lt;/ul&gt;&lt;ul&gt;&lt;li style=&quot;border-color: var(--border-color);&quot;&gt;Dicom File 5&lt;/li&gt;&lt;/ul&gt;&lt;ul&gt;&lt;li style=&quot;border-color: var(--border-color);&quot;&gt;Dicom File 6&lt;/li&gt;&lt;/ul&gt;&lt;ul&gt;&lt;li style=&quot;border-color: var(--border-color);&quot;&gt;Dicom File 7&lt;/li&gt;&lt;/ul&gt;&lt;ul&gt;&lt;li style=&quot;border-color: var(--border-color);&quot;&gt;Dicom File 8&lt;/li&gt;&lt;/ul&gt;&lt;ul&gt;&lt;li style=&quot;border-color: var(--border-color);&quot;&gt;Dicom File 9&lt;/li&gt;&lt;/ul&gt;&lt;ul&gt;&lt;li style=&quot;border-color: var(--border-color);&quot;&gt;Dicom File 10&lt;/li&gt;&lt;/ul&gt;&lt;ul&gt;&lt;li style=&quot;border-color: var(--border-color);&quot;&gt;Dicom File 11&lt;/li&gt;&lt;/ul&gt;&lt;/h5&gt;" style="text;strokeColor=none;fillColor=none;html=1;whiteSpace=wrap;verticalAlign=top;overflow=hidden;" parent="80iF3O7qkHXSTFUTzdZd-22" vertex="1">
          <mxGeometry x="20" y="580" width="220" height="480" as="geometry" />
        </mxCell>
        <mxCell id="nP_nll61NOsiGRVxidjP-41" value="Show images" style="rounded=0;whiteSpace=wrap;html=1;" parent="80iF3O7qkHXSTFUTzdZd-22" vertex="1">
          <mxGeometry x="270" y="590" width="360" height="360" as="geometry" />
        </mxCell>
        <mxCell id="nP_nll61NOsiGRVxidjP-47" value="" style="shape=link;html=1;rounded=0;" parent="80iF3O7qkHXSTFUTzdZd-22" target="nP_nll61NOsiGRVxidjP-46" edge="1">
          <mxGeometry width="100" relative="1" as="geometry">
            <mxPoint x="270" y="970" as="sourcePoint" />
            <mxPoint x="630" y="970" as="targetPoint" />
          </mxGeometry>
        </mxCell>
        <mxCell id="nP_nll61NOsiGRVxidjP-48" value="" style="group" parent="80iF3O7qkHXSTFUTzdZd-22" vertex="1" connectable="0">
          <mxGeometry x="275" y="960" width="355" height="20" as="geometry" />
        </mxCell>
        <mxCell id="nP_nll61NOsiGRVxidjP-45" value="" style="shape=link;html=1;rounded=0;" parent="nP_nll61NOsiGRVxidjP-48" source="nP_nll61NOsiGRVxidjP-46" edge="1">
          <mxGeometry width="100" relative="1" as="geometry">
            <mxPoint x="-5" y="10" as="sourcePoint" />
            <mxPoint x="355" y="10" as="targetPoint" />
          </mxGeometry>
        </mxCell>
        <mxCell id="nP_nll61NOsiGRVxidjP-46" value="" style="rounded=0;whiteSpace=wrap;html=1;" parent="nP_nll61NOsiGRVxidjP-48" vertex="1">
          <mxGeometry width="10" height="20" as="geometry" />
        </mxCell>
        <mxCell id="nP_nll61NOsiGRVxidjP-50" value="Show default tag info" style="rounded=0;whiteSpace=wrap;html=1;" parent="80iF3O7qkHXSTFUTzdZd-22" vertex="1">
          <mxGeometry x="270" y="990" width="360" height="60" as="geometry" />
        </mxCell>
        <mxCell id="nP_nll61NOsiGRVxidjP-51" value="" style="rounded=0;whiteSpace=wrap;html=1;" parent="80iF3O7qkHXSTFUTzdZd-22" vertex="1">
          <mxGeometry x="660" y="580" width="300" height="480" as="geometry" />
        </mxCell>
        <mxCell id="nP_nll61NOsiGRVxidjP-52" value="Search..." style="rounded=0;whiteSpace=wrap;html=1;align=left;" parent="80iF3O7qkHXSTFUTzdZd-22" vertex="1">
          <mxGeometry x="670" y="590" width="280" height="20" as="geometry" />
        </mxCell>
        <mxCell id="nP_nll61NOsiGRVxidjP-80" value="" style="shape=table;startSize=0;container=1;collapsible=0;childLayout=tableLayout;fontSize=16;" parent="80iF3O7qkHXSTFUTzdZd-22" vertex="1">
          <mxGeometry x="670" y="610" width="280" height="60" as="geometry" />
        </mxCell>
        <mxCell id="nP_nll61NOsiGRVxidjP-81" value="" style="shape=tableRow;horizontal=0;startSize=0;swimlaneHead=0;swimlaneBody=0;strokeColor=inherit;top=0;left=0;bottom=0;right=0;collapsible=0;dropTarget=0;fillColor=none;points=[[0,0.5],[1,0.5]];portConstraint=eastwest;fontSize=16;" parent="nP_nll61NOsiGRVxidjP-80" vertex="1">
          <mxGeometry width="280" height="20" as="geometry" />
        </mxCell>
        <mxCell id="nP_nll61NOsiGRVxidjP-82" value="Tag" style="shape=partialRectangle;html=1;whiteSpace=wrap;connectable=0;strokeColor=inherit;overflow=hidden;fillColor=none;top=0;left=0;bottom=0;right=0;pointerEvents=1;fontSize=12;" parent="nP_nll61NOsiGRVxidjP-81" vertex="1">
          <mxGeometry width="80" height="20" as="geometry">
            <mxRectangle width="80" height="20" as="alternateBounds" />
          </mxGeometry>
        </mxCell>
        <mxCell id="nP_nll61NOsiGRVxidjP-83" value="VR" style="shape=partialRectangle;html=1;whiteSpace=wrap;connectable=0;strokeColor=inherit;overflow=hidden;fillColor=none;top=0;left=0;bottom=0;right=0;pointerEvents=1;fontSize=12;" parent="nP_nll61NOsiGRVxidjP-81" vertex="1">
          <mxGeometry x="80" width="40" height="20" as="geometry">
            <mxRectangle width="40" height="20" as="alternateBounds" />
          </mxGeometry>
        </mxCell>
        <mxCell id="nP_nll61NOsiGRVxidjP-84" value="TagName" style="shape=partialRectangle;html=1;whiteSpace=wrap;connectable=0;strokeColor=inherit;overflow=hidden;fillColor=none;top=0;left=0;bottom=0;right=0;pointerEvents=1;fontSize=12;" parent="nP_nll61NOsiGRVxidjP-81" vertex="1">
          <mxGeometry x="120" width="90" height="20" as="geometry">
            <mxRectangle width="90" height="20" as="alternateBounds" />
          </mxGeometry>
        </mxCell>
        <mxCell id="nP_nll61NOsiGRVxidjP-93" value="TagValue" style="shape=partialRectangle;html=1;whiteSpace=wrap;connectable=0;strokeColor=inherit;overflow=hidden;fillColor=none;top=0;left=0;bottom=0;right=0;pointerEvents=1;fontSize=12;" parent="nP_nll61NOsiGRVxidjP-81" vertex="1">
          <mxGeometry x="210" width="70" height="20" as="geometry">
            <mxRectangle width="70" height="20" as="alternateBounds" />
          </mxGeometry>
        </mxCell>
        <mxCell id="nP_nll61NOsiGRVxidjP-85" value="" style="shape=tableRow;horizontal=0;startSize=0;swimlaneHead=0;swimlaneBody=0;strokeColor=inherit;top=0;left=0;bottom=0;right=0;collapsible=0;dropTarget=0;fillColor=none;points=[[0,0.5],[1,0.5]];portConstraint=eastwest;fontSize=16;" parent="nP_nll61NOsiGRVxidjP-80" vertex="1">
          <mxGeometry y="20" width="280" height="20" as="geometry" />
        </mxCell>
        <mxCell id="nP_nll61NOsiGRVxidjP-86" value="(0008, 0016)" style="shape=partialRectangle;html=1;whiteSpace=wrap;connectable=0;strokeColor=inherit;overflow=hidden;fillColor=none;top=0;left=0;bottom=0;right=0;pointerEvents=1;fontSize=12;" parent="nP_nll61NOsiGRVxidjP-85" vertex="1">
          <mxGeometry width="80" height="20" as="geometry">
            <mxRectangle width="80" height="20" as="alternateBounds" />
          </mxGeometry>
        </mxCell>
        <mxCell id="nP_nll61NOsiGRVxidjP-87" value="UI" style="shape=partialRectangle;html=1;whiteSpace=wrap;connectable=0;strokeColor=inherit;overflow=hidden;fillColor=none;top=0;left=0;bottom=0;right=0;pointerEvents=1;fontSize=12;" parent="nP_nll61NOsiGRVxidjP-85" vertex="1">
          <mxGeometry x="80" width="40" height="20" as="geometry">
            <mxRectangle width="40" height="20" as="alternateBounds" />
          </mxGeometry>
        </mxCell>
        <mxCell id="nP_nll61NOsiGRVxidjP-88" value="Sop Class Uid" style="shape=partialRectangle;html=1;whiteSpace=wrap;connectable=0;strokeColor=inherit;overflow=hidden;fillColor=none;top=0;left=0;bottom=0;right=0;pointerEvents=1;fontSize=12;" parent="nP_nll61NOsiGRVxidjP-85" vertex="1">
          <mxGeometry x="120" width="90" height="20" as="geometry">
            <mxRectangle width="90" height="20" as="alternateBounds" />
          </mxGeometry>
        </mxCell>
        <mxCell id="nP_nll61NOsiGRVxidjP-94" value="x.x.xxx.xx..." style="shape=partialRectangle;html=1;whiteSpace=wrap;connectable=0;strokeColor=inherit;overflow=hidden;fillColor=none;top=0;left=0;bottom=0;right=0;pointerEvents=1;fontSize=12;" parent="nP_nll61NOsiGRVxidjP-85" vertex="1">
          <mxGeometry x="210" width="70" height="20" as="geometry">
            <mxRectangle width="70" height="20" as="alternateBounds" />
          </mxGeometry>
        </mxCell>
        <mxCell id="nP_nll61NOsiGRVxidjP-89" value="" style="shape=tableRow;horizontal=0;startSize=0;swimlaneHead=0;swimlaneBody=0;strokeColor=inherit;top=0;left=0;bottom=0;right=0;collapsible=0;dropTarget=0;fillColor=none;points=[[0,0.5],[1,0.5]];portConstraint=eastwest;fontSize=16;" parent="nP_nll61NOsiGRVxidjP-80" vertex="1">
          <mxGeometry y="40" width="280" height="20" as="geometry" />
        </mxCell>
        <mxCell id="nP_nll61NOsiGRVxidjP-90" value="" style="shape=partialRectangle;html=1;whiteSpace=wrap;connectable=0;strokeColor=inherit;overflow=hidden;fillColor=none;top=0;left=0;bottom=0;right=0;pointerEvents=1;fontSize=12;" parent="nP_nll61NOsiGRVxidjP-89" vertex="1">
          <mxGeometry width="80" height="20" as="geometry">
            <mxRectangle width="80" height="20" as="alternateBounds" />
          </mxGeometry>
        </mxCell>
        <mxCell id="nP_nll61NOsiGRVxidjP-91" value="" style="shape=partialRectangle;html=1;whiteSpace=wrap;connectable=0;strokeColor=inherit;overflow=hidden;fillColor=none;top=0;left=0;bottom=0;right=0;pointerEvents=1;fontSize=12;" parent="nP_nll61NOsiGRVxidjP-89" vertex="1">
          <mxGeometry x="80" width="40" height="20" as="geometry">
            <mxRectangle width="40" height="20" as="alternateBounds" />
          </mxGeometry>
        </mxCell>
        <mxCell id="nP_nll61NOsiGRVxidjP-92" value="" style="shape=partialRectangle;html=1;whiteSpace=wrap;connectable=0;strokeColor=inherit;overflow=hidden;fillColor=none;top=0;left=0;bottom=0;right=0;pointerEvents=1;fontSize=12;" parent="nP_nll61NOsiGRVxidjP-89" vertex="1">
          <mxGeometry x="120" width="90" height="20" as="geometry">
            <mxRectangle width="90" height="20" as="alternateBounds" />
          </mxGeometry>
        </mxCell>
        <mxCell id="nP_nll61NOsiGRVxidjP-95" style="shape=partialRectangle;html=1;whiteSpace=wrap;connectable=0;strokeColor=inherit;overflow=hidden;fillColor=none;top=0;left=0;bottom=0;right=0;pointerEvents=1;fontSize=12;" parent="nP_nll61NOsiGRVxidjP-89" vertex="1">
          <mxGeometry x="210" width="70" height="20" as="geometry">
            <mxRectangle width="70" height="20" as="alternateBounds" />
          </mxGeometry>
        </mxCell>
        <mxCell id="80iF3O7qkHXSTFUTzdZd-23" value="MainWindow" style="swimlane;whiteSpace=wrap;html=1;" vertex="1" parent="1">
          <mxGeometry x="-670" y="20" width="1340" height="820" as="geometry" />
        </mxCell>
        <mxCell id="80iF3O7qkHXSTFUTzdZd-20" value="&amp;nbsp;[TITLE] boDicom" style="rounded=0;whiteSpace=wrap;html=1;align=left;fillColor=#eeeeee;strokeColor=#36393d;" vertex="1" parent="80iF3O7qkHXSTFUTzdZd-23">
          <mxGeometry x="30" y="40" width="650" height="20" as="geometry" />
        </mxCell>
        <mxCell id="80iF3O7qkHXSTFUTzdZd-21" value="&amp;nbsp;[MENU] File / Help ..." style="rounded=0;whiteSpace=wrap;html=1;align=left;" vertex="1" parent="80iF3O7qkHXSTFUTzdZd-23">
          <mxGeometry x="30" y="60" width="650" height="20" as="geometry" />
        </mxCell>
        <mxCell id="80iF3O7qkHXSTFUTzdZd-24" value="" style="rounded=0;whiteSpace=wrap;html=1;align=left;" vertex="1" parent="80iF3O7qkHXSTFUTzdZd-23">
          <mxGeometry x="30" y="80" width="650" height="730" as="geometry" />
        </mxCell>
        <mxCell id="80iF3O7qkHXSTFUTzdZd-25" value="FileList Section" style="rounded=0;whiteSpace=wrap;html=1;fillColor=#eeeeee;strokeColor=#36393d;" vertex="1" parent="80iF3O7qkHXSTFUTzdZd-23">
          <mxGeometry x="40" y="90" width="630" height="90" as="geometry" />
        </mxCell>
        <mxCell id="80iF3O7qkHXSTFUTzdZd-26" value="Image Section" style="rounded=0;whiteSpace=wrap;html=1;fillColor=#eeeeee;strokeColor=#36393d;" vertex="1" parent="80iF3O7qkHXSTFUTzdZd-23">
          <mxGeometry x="40" y="190" width="630" height="210" as="geometry" />
        </mxCell>
        <mxCell id="80iF3O7qkHXSTFUTzdZd-27" value="TagList Section" style="rounded=0;whiteSpace=wrap;html=1;fillColor=#eeeeee;strokeColor=#36393d;" vertex="1" parent="80iF3O7qkHXSTFUTzdZd-23">
          <mxGeometry x="40" y="415" width="630" height="380" as="geometry" />
        </mxCell>
        <mxCell id="80iF3O7qkHXSTFUTzdZd-29" value="&lt;ul&gt;&lt;li&gt;File1&lt;/li&gt;&lt;li&gt;File2&lt;/li&gt;&lt;li&gt;File3&lt;/li&gt;&lt;li&gt;File4&lt;/li&gt;&lt;li&gt;...&lt;/li&gt;&lt;/ul&gt;" style="rounded=0;whiteSpace=wrap;html=1;align=left;" vertex="1" parent="80iF3O7qkHXSTFUTzdZd-23">
          <mxGeometry x="690" y="90" width="630" height="90" as="geometry" />
        </mxCell>
        <mxCell id="80iF3O7qkHXSTFUTzdZd-30" value="" style="rounded=0;whiteSpace=wrap;html=1;" vertex="1" parent="80iF3O7qkHXSTFUTzdZd-23">
          <mxGeometry x="1300" y="90" width="20" height="90" as="geometry" />
        </mxCell>
        <mxCell id="80iF3O7qkHXSTFUTzdZd-32" value="" style="triangle;whiteSpace=wrap;html=1;rotation=90;" vertex="1" parent="80iF3O7qkHXSTFUTzdZd-23">
          <mxGeometry x="1300" y="160" width="20" height="20" as="geometry" />
        </mxCell>
        <mxCell id="80iF3O7qkHXSTFUTzdZd-33" value="" style="triangle;whiteSpace=wrap;html=1;rotation=-90;" vertex="1" parent="80iF3O7qkHXSTFUTzdZd-23">
          <mxGeometry x="1300" y="90" width="20" height="20" as="geometry" />
        </mxCell>
        <mxCell id="80iF3O7qkHXSTFUTzdZd-34" value="" style="rounded=0;whiteSpace=wrap;html=1;" vertex="1" parent="80iF3O7qkHXSTFUTzdZd-23">
          <mxGeometry x="690" y="190" width="630" height="220" as="geometry" />
        </mxCell>
        <mxCell id="80iF3O7qkHXSTFUTzdZd-35" value="Image" style="rounded=0;whiteSpace=wrap;html=1;" vertex="1" parent="80iF3O7qkHXSTFUTzdZd-23">
          <mxGeometry x="700" y="210" width="610" height="160" as="geometry" />
        </mxCell>
        <mxCell id="80iF3O7qkHXSTFUTzdZd-37" value="Selected file name" style="rounded=0;whiteSpace=wrap;html=1;" vertex="1" parent="80iF3O7qkHXSTFUTzdZd-23">
          <mxGeometry x="710" y="200" width="120" height="20" as="geometry" />
        </mxCell>
        <mxCell id="80iF3O7qkHXSTFUTzdZd-38" value="" style="endArrow=none;html=1;rounded=0;" edge="1" parent="80iF3O7qkHXSTFUTzdZd-23" source="80iF3O7qkHXSTFUTzdZd-39">
          <mxGeometry width="50" height="50" relative="1" as="geometry">
            <mxPoint x="700" y="390" as="sourcePoint" />
            <mxPoint x="1300" y="390" as="targetPoint" />
          </mxGeometry>
        </mxCell>
        <mxCell id="80iF3O7qkHXSTFUTzdZd-41" value="" style="endArrow=none;html=1;rounded=0;" edge="1" parent="80iF3O7qkHXSTFUTzdZd-23" target="80iF3O7qkHXSTFUTzdZd-39">
          <mxGeometry width="50" height="50" relative="1" as="geometry">
            <mxPoint x="720" y="400" as="sourcePoint" />
            <mxPoint x="1320" y="400" as="targetPoint" />
          </mxGeometry>
        </mxCell>
        <mxCell id="80iF3O7qkHXSTFUTzdZd-39" value="" style="rounded=0;whiteSpace=wrap;html=1;" vertex="1" parent="80iF3O7qkHXSTFUTzdZd-23">
          <mxGeometry x="710" y="380" width="10" height="20" as="geometry" />
        </mxCell>
        <mxCell id="80iF3O7qkHXSTFUTzdZd-42" value="" style="rounded=0;whiteSpace=wrap;html=1;" vertex="1" parent="80iF3O7qkHXSTFUTzdZd-23">
          <mxGeometry x="690" y="415" width="630" height="380" as="geometry" />
        </mxCell>
        <mxCell id="80iF3O7qkHXSTFUTzdZd-43" value="" style="shape=table;startSize=0;container=1;collapsible=0;childLayout=tableLayout;fontSize=16;" vertex="1" parent="1">
          <mxGeometry x="30" y="450" width="610" height="60" as="geometry" />
        </mxCell>
        <mxCell id="80iF3O7qkHXSTFUTzdZd-44" value="" style="shape=tableRow;horizontal=0;startSize=0;swimlaneHead=0;swimlaneBody=0;strokeColor=inherit;top=0;left=0;bottom=0;right=0;collapsible=0;dropTarget=0;fillColor=none;points=[[0,0.5],[1,0.5]];portConstraint=eastwest;fontSize=16;" vertex="1" parent="80iF3O7qkHXSTFUTzdZd-43">
          <mxGeometry width="610" height="20" as="geometry" />
        </mxCell>
        <mxCell id="80iF3O7qkHXSTFUTzdZd-45" value="Tag" style="shape=partialRectangle;html=1;whiteSpace=wrap;connectable=0;strokeColor=inherit;overflow=hidden;fillColor=none;top=0;left=0;bottom=0;right=0;pointerEvents=1;fontSize=12;" vertex="1" parent="80iF3O7qkHXSTFUTzdZd-44">
          <mxGeometry width="100" height="20" as="geometry">
            <mxRectangle width="100" height="20" as="alternateBounds" />
          </mxGeometry>
        </mxCell>
        <mxCell id="80iF3O7qkHXSTFUTzdZd-46" value="VR" style="shape=partialRectangle;html=1;whiteSpace=wrap;connectable=0;strokeColor=inherit;overflow=hidden;fillColor=none;top=0;left=0;bottom=0;right=0;pointerEvents=1;fontSize=12;" vertex="1" parent="80iF3O7qkHXSTFUTzdZd-44">
          <mxGeometry x="100" width="50" height="20" as="geometry">
            <mxRectangle width="50" height="20" as="alternateBounds" />
          </mxGeometry>
        </mxCell>
        <mxCell id="80iF3O7qkHXSTFUTzdZd-47" value="TagName" style="shape=partialRectangle;html=1;whiteSpace=wrap;connectable=0;strokeColor=inherit;overflow=hidden;fillColor=none;top=0;left=0;bottom=0;right=0;pointerEvents=1;fontSize=12;" vertex="1" parent="80iF3O7qkHXSTFUTzdZd-44">
          <mxGeometry x="150" width="160" height="20" as="geometry">
            <mxRectangle width="160" height="20" as="alternateBounds" />
          </mxGeometry>
        </mxCell>
        <mxCell id="80iF3O7qkHXSTFUTzdZd-48" value="TagValue" style="shape=partialRectangle;html=1;whiteSpace=wrap;connectable=0;strokeColor=inherit;overflow=hidden;fillColor=none;top=0;left=0;bottom=0;right=0;pointerEvents=1;fontSize=12;" vertex="1" parent="80iF3O7qkHXSTFUTzdZd-44">
          <mxGeometry x="310" width="300" height="20" as="geometry">
            <mxRectangle width="300" height="20" as="alternateBounds" />
          </mxGeometry>
        </mxCell>
        <mxCell id="80iF3O7qkHXSTFUTzdZd-49" value="" style="shape=tableRow;horizontal=0;startSize=0;swimlaneHead=0;swimlaneBody=0;strokeColor=inherit;top=0;left=0;bottom=0;right=0;collapsible=0;dropTarget=0;fillColor=none;points=[[0,0.5],[1,0.5]];portConstraint=eastwest;fontSize=16;" vertex="1" parent="80iF3O7qkHXSTFUTzdZd-43">
          <mxGeometry y="20" width="610" height="20" as="geometry" />
        </mxCell>
        <mxCell id="80iF3O7qkHXSTFUTzdZd-50" value="(0008, 0016)" style="shape=partialRectangle;html=1;whiteSpace=wrap;connectable=0;strokeColor=inherit;overflow=hidden;fillColor=none;top=0;left=0;bottom=0;right=0;pointerEvents=1;fontSize=12;" vertex="1" parent="80iF3O7qkHXSTFUTzdZd-49">
          <mxGeometry width="100" height="20" as="geometry">
            <mxRectangle width="100" height="20" as="alternateBounds" />
          </mxGeometry>
        </mxCell>
        <mxCell id="80iF3O7qkHXSTFUTzdZd-51" value="UI" style="shape=partialRectangle;html=1;whiteSpace=wrap;connectable=0;strokeColor=inherit;overflow=hidden;fillColor=none;top=0;left=0;bottom=0;right=0;pointerEvents=1;fontSize=12;" vertex="1" parent="80iF3O7qkHXSTFUTzdZd-49">
          <mxGeometry x="100" width="50" height="20" as="geometry">
            <mxRectangle width="50" height="20" as="alternateBounds" />
          </mxGeometry>
        </mxCell>
        <mxCell id="80iF3O7qkHXSTFUTzdZd-52" value="Sop Class Uid" style="shape=partialRectangle;html=1;whiteSpace=wrap;connectable=0;strokeColor=inherit;overflow=hidden;fillColor=none;top=0;left=0;bottom=0;right=0;pointerEvents=1;fontSize=12;" vertex="1" parent="80iF3O7qkHXSTFUTzdZd-49">
          <mxGeometry x="150" width="160" height="20" as="geometry">
            <mxRectangle width="160" height="20" as="alternateBounds" />
          </mxGeometry>
        </mxCell>
        <mxCell id="80iF3O7qkHXSTFUTzdZd-53" value="x.x.xxx.xx..." style="shape=partialRectangle;html=1;whiteSpace=wrap;connectable=0;strokeColor=inherit;overflow=hidden;fillColor=none;top=0;left=0;bottom=0;right=0;pointerEvents=1;fontSize=12;" vertex="1" parent="80iF3O7qkHXSTFUTzdZd-49">
          <mxGeometry x="310" width="300" height="20" as="geometry">
            <mxRectangle width="300" height="20" as="alternateBounds" />
          </mxGeometry>
        </mxCell>
        <mxCell id="80iF3O7qkHXSTFUTzdZd-54" value="" style="shape=tableRow;horizontal=0;startSize=0;swimlaneHead=0;swimlaneBody=0;strokeColor=inherit;top=0;left=0;bottom=0;right=0;collapsible=0;dropTarget=0;fillColor=none;points=[[0,0.5],[1,0.5]];portConstraint=eastwest;fontSize=16;" vertex="1" parent="80iF3O7qkHXSTFUTzdZd-43">
          <mxGeometry y="40" width="610" height="20" as="geometry" />
        </mxCell>
        <mxCell id="80iF3O7qkHXSTFUTzdZd-55" value="" style="shape=partialRectangle;html=1;whiteSpace=wrap;connectable=0;strokeColor=inherit;overflow=hidden;fillColor=none;top=0;left=0;bottom=0;right=0;pointerEvents=1;fontSize=12;" vertex="1" parent="80iF3O7qkHXSTFUTzdZd-54">
          <mxGeometry width="100" height="20" as="geometry">
            <mxRectangle width="100" height="20" as="alternateBounds" />
          </mxGeometry>
        </mxCell>
        <mxCell id="80iF3O7qkHXSTFUTzdZd-56" value="" style="shape=partialRectangle;html=1;whiteSpace=wrap;connectable=0;strokeColor=inherit;overflow=hidden;fillColor=none;top=0;left=0;bottom=0;right=0;pointerEvents=1;fontSize=12;" vertex="1" parent="80iF3O7qkHXSTFUTzdZd-54">
          <mxGeometry x="100" width="50" height="20" as="geometry">
            <mxRectangle width="50" height="20" as="alternateBounds" />
          </mxGeometry>
        </mxCell>
        <mxCell id="80iF3O7qkHXSTFUTzdZd-57" value="" style="shape=partialRectangle;html=1;whiteSpace=wrap;connectable=0;strokeColor=inherit;overflow=hidden;fillColor=none;top=0;left=0;bottom=0;right=0;pointerEvents=1;fontSize=12;" vertex="1" parent="80iF3O7qkHXSTFUTzdZd-54">
          <mxGeometry x="150" width="160" height="20" as="geometry">
            <mxRectangle width="160" height="20" as="alternateBounds" />
          </mxGeometry>
        </mxCell>
        <mxCell id="80iF3O7qkHXSTFUTzdZd-58" style="shape=partialRectangle;html=1;whiteSpace=wrap;connectable=0;strokeColor=inherit;overflow=hidden;fillColor=none;top=0;left=0;bottom=0;right=0;pointerEvents=1;fontSize=12;" vertex="1" parent="80iF3O7qkHXSTFUTzdZd-54">
          <mxGeometry x="310" width="300" height="20" as="geometry">
            <mxRectangle width="300" height="20" as="alternateBounds" />
          </mxGeometry>
        </mxCell>
        <mxCell id="80iF3O7qkHXSTFUTzdZd-59" value="About Window" style="swimlane;whiteSpace=wrap;html=1;" vertex="1" parent="1">
          <mxGeometry x="680" y="20" width="390" height="330" as="geometry" />
        </mxCell>
      </root>
    </mxGraphModel>
  </diagram>
</mxfile>
